<?xml version="1.0" standalone="no"?>
<!DOCTYPE svg PUBLIC "-//W3C//DTD SVG 20010904//EN"
 "http://www.w3.org/TR/2001/REC-SVG-20010904/DTD/svg10.dtd">
<svg version="1.0" xmlns="http://www.w3.org/2000/svg"
 width="512.000000pt" height="512.000000pt" viewBox="0 0 512.000000 512.000000"
 preserveAspectRatio="xMidYMid meet">

<g transform="translate(0.000000,512.000000) scale(0.100000,-0.100000)"
fill="#000000" stroke="none">
<path d="M2415 4140 c-215 -30 -622 -227 -757 -368 -107 -111 -156 -198 -213
-378 l-32 -101 101 105 c99 102 168 157 253 201 168 85 667 163 906 141 209
-19 391 -49 515 -85 195 -55 266 -99 423 -262 l106 -110 6 -69 c4 -38 7 -154
7 -258 l0 -188 -45 50 c-116 129 -312 191 -540 171 -44 -3 -81 -5 -83 -4 -2 1
17 14 40 28 62 36 160 67 211 67 51 0 160 -34 199 -61 44 -31 41 -4 -3 36
-153 138 -355 122 -651 -51 -97 -57 -128 -92 -128 -144 0 -21 4 -41 8 -44 5
-3 -6 -35 -25 -72 -18 -36 -33 -74 -33 -84 0 -47 -6 -50 -121 -50 l-108 0 -7
38 c-8 42 -35 108 -57 136 -12 16 -12 24 -2 44 17 32 4 78 -32 113 -35 34
-190 123 -263 150 -84 32 -198 59 -246 59 -24 0 -69 -10 -101 -21 -59 -22
-163 -92 -163 -109 0 -14 2 -13 57 14 118 60 226 60 338 3 39 -20 75 -40 82
-44 6 -4 -66 -8 -160 -9 -158 0 -178 -2 -243 -26 -83 -29 -169 -83 -217 -137
l-35 -39 -6 30 c-3 17 -6 46 -6 66 0 69 -9 25 -14 -66 -3 -50 -10 -101 -17
-114 -17 -33 -15 -192 5 -268 57 -224 213 -367 442 -407 142 -24 275 4 401 86
126 81 202 207 238 394 l5 27 111 0 c79 0 111 -3 113 -12 2 -7 8 -40 15 -73
45 -245 272 -428 531 -429 161 -1 286 48 391 153 106 106 160 238 163 396 0
44 5 83 11 87 12 9 9 230 -6 397 -15 175 -79 404 -148 525 -123 218 -261 333
-571 477 -152 70 -272 96 -446 97 -76 0 -166 -4 -199 -8z m-399 -1235 c218
-39 354 -164 354 -328 l0 -40 -50 51 c-56 57 -128 95 -217 113 -165 34 -366
-71 -408 -214 -20 -67 -20 -67 19 -67 30 0 35 4 41 31 4 17 23 49 42 70 35 39
100 85 109 77 2 -3 -1 -19 -7 -37 -13 -37 -7 -105 11 -126 10 -12 40 -15 140
-15 l128 0 12 30 c7 17 10 52 8 80 -3 28 -1 50 4 50 34 0 118 -101 118 -143 0
-8 5 -17 12 -19 19 -7 -16 -85 -68 -151 -149 -190 -457 -229 -650 -83 -115 87
-163 178 -189 353 -22 143 80 283 249 342 119 41 212 48 342 26z m1383 -12
c125 -32 225 -103 268 -191 24 -49 28 -68 27 -137 -2 -137 -50 -254 -140 -341
-67 -66 -140 -101 -245 -120 -166 -29 -315 18 -429 137 -52 54 -113 170 -92
176 6 3 12 12 12 20 0 41 85 143 118 143 5 0 7 -22 4 -50 -2 -28 1 -63 8 -80
l12 -30 133 0 133 0 11 31 c14 40 14 80 1 115 -14 37 -7 40 34 15 49 -31 103
-93 111 -130 6 -27 11 -31 41 -31 29 0 34 3 34 23 0 37 -48 123 -90 161 -158
143 -392 135 -547 -17 l-53 -51 0 37 c0 171 146 301 375 336 72 11 200 4 274
-16z"/>
<path d="M2458 2328 c-10 -40 -38 -112 -63 -161 -35 -68 -45 -98 -45 -136 0
-90 67 -150 177 -159 l53 -4 0 36 c0 35 -1 36 -37 36 -48 0 -104 28 -121 60
-18 35 -9 68 39 152 37 67 89 221 77 233 -2 3 -18 7 -34 11 -29 5 -29 5 -46
-68z"/>
<path d="M2210 1620 l0 -40 350 0 350 0 0 40 0 40 -350 0 -350 0 0 -40z"/>
</g>
</svg>
